<?xml version="1.0" encoding="UTF-8"?>
<svg width="400" height="300" viewBox="0 0 400 300" xmlns="http://www.w3.org/2000/svg">
    <!-- Clock Face -->
    <circle cx="200" cy="150" r="100" fill="white" stroke="#242733" stroke-width="2"/>
    
    <!-- Hour Markers -->
    <g transform="translate(200,150)">
        <!-- 12, 3, 6, 9 markers -->
        <line x1="0" y1="-90" x2="0" y2="-80" stroke="#242733" stroke-width="4"/>
        <line x1="90" y1="0" x2="80" y2="0" stroke="#242733" stroke-width="4"/>
        <line x1="0" y1="90" x2="0" y2="80" stroke="#242733" stroke-width="4"/>
        <line x1="-90" y1="0" x2="-80" y2="0" stroke="#242733" stroke-width="4"/>
        
        <!-- Other hour markers -->
        <line transform="rotate(30)" x1="0" y1="-85" x2="0" y2="-80" stroke="#242733" stroke-width="2"/>
        <line transform="rotate(60)" x1="0" y1="-85" x2="0" y2="-80" stroke="#242733" stroke-width="2"/>
        <line transform="rotate(120)" x1="0" y1="-85" x2="0" y2="-80" stroke="#242733" stroke-width="2"/>
        <line transform="rotate(150)" x1="0" y1="-85" x2="0" y2="-80" stroke="#242733" stroke-width="2"/>
        <line transform="rotate(210)" x1="0" y1="-85" x2="0" y2="-80" stroke="#242733" stroke-width="2"/>
        <line transform="rotate(240)" x1="0" y1="-85" x2="0" y2="-80" stroke="#242733" stroke-width="2"/>
        <line transform="rotate(300)" x1="0" y1="-85" x2="0" y2="-80" stroke="#242733" stroke-width="2"/>
        <line transform="rotate(330)" x1="0" y1="-85" x2="0" y2="-80" stroke="#242733" stroke-width="2"/>
    </g>
    
    <!-- Clock Hands -->
    <g transform="translate(200,150)">
        <!-- Hour hand -->
        <line transform="rotate(45)" x1="0" y1="0" x2="0" y2="-40" stroke="#242733" stroke-width="4" stroke-linecap="round"/>
        <!-- Minute hand -->
        <line transform="rotate(240)" x1="0" y1="0" x2="0" y2="-60" stroke="#2af598" stroke-width="3" stroke-linecap="round"/>
        <!-- Center dot -->
        <circle r="6" fill="#2af598"/>
    </g>
    
    <!-- Medical Cross -->
    <g transform="translate(200,220)">
        <rect x="-10" y="-25" width="20" height="50" rx="2" fill="#2af598"/>
        <rect x="-25" y="-10" width="50" height="20" rx="2" fill="#2af598"/>
    </g>
</svg> 