<?xml version="1.0" encoding="UTF-8"?>
<svg width="400" height="300" viewBox="0 0 400 300" xmlns="http://www.w3.org/2000/svg">
    <!-- Building Background -->
    <rect x="100" y="50" width="200" height="200" rx="10" fill="#ffffff" stroke="#242733" stroke-width="2"/>
    
    <!-- Windows -->
    <g transform="translate(120,70)">
        <rect width="40" height="40" rx="5" fill="#2af598" fill-opacity="0.2"/>
        <rect x="70" width="40" height="40" rx="5" fill="#2af598" fill-opacity="0.2"/>
        <rect x="140" width="40" height="40" rx="5" fill="#2af598" fill-opacity="0.2"/>
        
        <rect y="70" width="40" height="40" rx="5" fill="#2af598" fill-opacity="0.2"/>
        <rect x="70" y="70" width="40" height="40" rx="5" fill="#2af598" fill-opacity="0.2"/>
        <rect x="140" y="70" width="40" height="40" rx="5" fill="#2af598" fill-opacity="0.2"/>
        
        <rect y="140" width="40" height="40" rx="5" fill="#2af598" fill-opacity="0.2"/>
        <rect x="70" y="140" width="40" height="40" rx="5" fill="#2af598" fill-opacity="0.2"/>
        <rect x="140" y="140" width="40" height="40" rx="5" fill="#2af598" fill-opacity="0.2"/>
    </g>
    
    <!-- Door -->
    <rect x="175" y="200" width="50" height="50" rx="5" fill="#242733"/>
    
    <!-- Check Mark -->
    <g transform="translate(200,150)">
        <circle r="30" fill="#2af598" fill-opacity="0.2"/>
        <path d="M-15,0 L-5,10 L15,-10" stroke="#2af598" stroke-width="4" fill="none" stroke-linecap="round" stroke-linejoin="round"/>
    </g>
</svg> 